<svg viewBox="0 0 500 500" xmlns="http://www.w3.org/2000/svg">
  <defs></defs>
  <ellipse style="fill: none; stroke: rgb(8, 145, 178); stroke-width: 20px;" cx="250" cy="250" rx="90" ry="90"></ellipse>
  <ellipse style="transform-origin: 250px 250px; stroke-width: 10px; stroke: rgb(6, 182, 212); fill: rgb(14, 116, 144);" cx="250" cy="72.5" rx="37.5" ry="37.5"></ellipse>
  <ellipse style="transform-origin: 250px 250px; stroke-width: 10px; stroke: rgb(6, 182, 212); fill: rgb(14, 116, 144);" cx="250" cy="72.5" rx="37.5" ry="37.5" transform="matrix(0.623607, 0.781738, -0.781738, 0.623607, 0.000047, -0.000095)"></ellipse>
  <ellipse style="transform-origin: 250px 250px; stroke-width: 10px; stroke: rgb(6, 182, 212); fill: rgb(14, 116, 144);" cx="250" cy="72.5" rx="37.5" ry="37.5" transform="matrix(-0.901077, -0.433659, 0.433659, -0.901077, -0.000041, 0.000033)"></ellipse>
  <ellipse style="transform-origin: 250px 250px; stroke-width: 10px; stroke: rgb(6, 182, 212); fill: rgb(14, 116, 144);" cx="250" cy="72.5" rx="37.5" ry="37.5" transform="matrix(-0.222399, 0.974956, -0.974956, -0.222399, 0.000159, -0.000055)"></ellipse>
  <ellipse style="transform-origin: 250px 250px; stroke-width: 10px; stroke: rgb(6, 182, 212); fill: rgb(14, 116, 144);" cx="250" cy="72.5" rx="37.5" ry="37.5" transform="matrix(-0.900925, 0.433974, -0.433974, -0.900925, 0.000063, -0.000235)"></ellipse>
  <ellipse style="transform-origin: 250px 250px; stroke-width: 10px; stroke: rgb(6, 182, 212); fill: rgb(14, 116, 144);" cx="250" cy="72.5" rx="37.5" ry="37.5" transform="matrix(-0.221549, -0.975149, 0.975149, -0.221549, 0.00005, -0.00018)"></ellipse>
  <ellipse style="transform-origin: -250px -250px; stroke-width: 10px; stroke: rgb(6, 182, 212); fill: rgb(14, 116, 144);" cx="-250" cy="-427.5" rx="37.5" ry="37.5" transform="matrix(0.62388, -0.78152, 0.78152, 0.62388, 500.000259, 499.999674)"></ellipse>
</svg>
